<svg xmlns="http://www.w3.org/2000/svg" xmlns:xlink="http://www.w3.org/1999/xlink" preserveAspectRatio="xMidYMid" width="15" height="15" viewBox="0 0 15 15">
  <defs>
    <style>

      .cls-2 {
        fill: #ffffff;
      }
    </style>
  </defs>
  <path d="M14.707,1.383 C14.707,1.383 8.612,7.479 8.612,7.479 C8.612,7.479 14.426,13.293 14.426,13.293 C14.426,13.293 13.012,14.707 13.012,14.707 C13.012,14.707 7.197,8.893 7.197,8.893 C7.197,8.893 2.101,13.989 2.101,13.989 C2.101,13.989 0.730,12.617 0.730,12.617 C0.730,12.617 5.826,7.522 5.826,7.522 C5.826,7.522 0.012,1.707 0.012,1.707 C0.012,1.707 1.426,0.293 1.426,0.293 C1.426,0.293 7.240,6.107 7.240,6.107 C7.240,6.107 13.336,0.011 13.336,0.011 C13.336,0.011 14.707,1.383 14.707,1.383 Z" id="path-1" class="cls-2" fill-rule="evenodd"/>
</svg>
