<svg xmlns="http://www.w3.org/2000/svg" xmlns:xlink="http://www.w3.org/1999/xlink" preserveAspectRatio="xMidYMid" width="20" height="12" viewBox="0 0 20 12">
  <defs>
    <style>

      .cls-2 {
        fill: #ffffff;
      }
    </style>
  </defs>
  <path d="M0.000,12.000 C0.000,12.000 0.000,10.000 0.000,10.000 C0.000,10.000 20.000,10.000 20.000,10.000 C20.000,10.000 20.000,12.000 20.000,12.000 C20.000,12.000 0.000,12.000 0.000,12.000 ZM0.000,5.000 C0.000,5.000 20.000,5.000 20.000,5.000 C20.000,5.000 20.000,7.000 20.000,7.000 C20.000,7.000 0.000,7.000 0.000,7.000 C0.000,7.000 0.000,5.000 0.000,5.000 ZM0.000,0.000 C0.000,0.000 20.000,0.000 20.000,0.000 C20.000,0.000 20.000,2.000 20.000,2.000 C20.000,2.000 0.000,2.000 0.000,2.000 C0.000,2.000 0.000,0.000 0.000,0.000 Z" id="path-1" class="cls-2" fill-rule="evenodd"/>
</svg>
