<svg xmlns="http://www.w3.org/2000/svg" xmlns:xlink="http://www.w3.org/1999/xlink" preserveAspectRatio="xMidYMid" width="73" height="73" viewBox="0 0 73 73">
  <defs>
    <style>

      .cls-2 {
        fill: #ffffff;
      }
    </style>
  </defs>
  <path d="M36.500,73.000 C16.342,73.000 -0.000,56.658 -0.000,36.500 C-0.000,16.342 16.342,-0.000 36.500,-0.000 C56.658,-0.000 73.000,16.342 73.000,36.500 C73.000,56.658 56.658,73.000 36.500,73.000 ZM33.000,28.000 C33.000,28.000 33.000,49.000 33.000,49.000 C33.000,49.000 49.000,39.000 49.000,39.000 C49.000,39.000 33.000,28.000 33.000,28.000 ZM36.000,43.000 C36.000,43.000 36.000,34.000 36.000,34.000 C36.000,34.000 43.000,39.000 43.000,39.000 C43.000,39.000 36.000,43.000 36.000,43.000 Z" id="path-1" class="cls-2" fill-rule="evenodd"/>
</svg>
