<?xml version="1.0" encoding="UTF-8" standalone="no"?>
<!-- Generator: Avocode 1.1.1 - http://avocode.com -->
<svg xmlns="http://www.w3.org/2000/svg" xmlns:xlink="http://www.w3.org/1999/xlink" width="14" height="10" viewBox="0 0 14 10">
    <desc>Created with Avocode</desc>
    <path d="M 14.01 4.61 C 13.57 5.09, 12.96 5.27, 12.33 5.26 C 11.62 8.25, 8.49 10, 5.6 10 C 3.35 10, 1.33 8.98, 0 7.12 C 0.67 7.77, 1.59 8.14, 2.53 8.14 C 3.55 8.14, 4.5 7.71, 5.19 6.96 C 4.82 7.02, 4.19 6.85, 4.19 6.37 C 4.19 6.06, 4.51 5.85, 4.76 5.74 C 4.04 5.82, 3.37 5.54, 3.03 4.86 C 3.3 4.56, 3.62 4.49, 3.99 4.47 C 3.2 4.27, 2.58 3.87, 2.43 3.02 C 2.67 2.95, 2.92 2.91, 3.17 2.91 C 3.21 2.91, 3.25 2.91, 3.28 2.91 C 2.67 2.57, 2.05 1.97, 2.08 1.2 L 2.09 1.09 C 3.31 1.56, 4.54 2.08, 5.68 2.73 C 6.07 2.95, 6.42 3.29, 6.75 3.62 C 7.19 2.38, 7.81 0.85, 8.94 0.1 C 8.92 0.27, 8.84 0.41, 8.73 0.54 C 9.02 0.26, 9.41 0.06, 9.82 0 C 9.78 0.31, 9.34 0.48, 9.08 0.58 C 9.43 0.47, 9.9 0.23, 10.25 0.23 C 10.35 0.23, 10.46 0.26, 10.46 0.38 C 10.46 0.64, 9.5 0.85, 9.24 0.95 C 10.84 0.78, 12.01 2.26, 12.29 3.69 C 12.46 3.74, 12.62 3.77, 12.79 3.77 C 13.11 3.77, 13.66 3.67, 13.95 3.5 C 13.7 4.11, 13.03 4.39, 12.41 4.44 C 12.76 4.59, 13.21 4.65, 13.57 4.65 C 13.71 4.65, 13.87 4.63, 14.01 4.61 Z" fill="#ffffff" />
</svg>