<svg xmlns="http://www.w3.org/2000/svg" xmlns:xlink="http://www.w3.org/1999/xlink" preserveAspectRatio="xMidYMid" width="7" height="10" viewBox="0 0 7 10">
  <defs>
    <style>

      .cls-2 {
        fill: #ffffff;
      }
    </style>
  </defs>
  <path d="M4.737,6.884 C4.737,5.618 3.760,5.668 2.930,5.668 C2.930,5.668 2.187,5.668 2.187,5.668 C2.187,5.668 2.187,8.167 2.187,8.167 C2.187,8.167 2.507,8.167 2.507,8.167 C3.367,8.167 4.737,8.301 4.737,6.884 ZM4.183,2.836 C4.183,1.836 3.396,1.836 2.755,1.836 C2.755,1.836 2.187,1.836 2.187,1.836 C2.187,1.836 2.187,3.952 2.187,3.952 C2.187,3.952 2.624,3.952 2.624,3.952 C3.367,3.952 4.183,3.969 4.183,2.836 ZM6.995,6.934 C6.995,9.267 5.232,10.000 3.498,10.000 C3.498,10.000 0.001,10.000 0.001,10.000 C0.001,10.000 0.001,0.004 0.001,0.004 C0.001,0.004 3.192,0.004 3.192,0.004 C4.635,0.004 6.412,0.187 6.412,2.319 C6.412,3.269 5.975,4.102 5.203,4.468 C5.203,4.468 5.203,4.519 5.203,4.519 C6.325,4.785 6.995,5.618 6.995,6.934 Z" id="path-1" class="cls-2" fill-rule="evenodd"/>
</svg>
