<?xml version="1.0" encoding="UTF-8" standalone="no"?>
<!-- Generator: Avocode 1.1.1 - http://avocode.com -->
<svg xmlns="http://www.w3.org/2000/svg" xmlns:xlink="http://www.w3.org/1999/xlink" width="6" height="12" viewBox="0 0 6 12">
    <desc>Created with Avocode</desc>
    <path d="M 5.67 2.07 L 5.99 0.23 C 5.3 -0.01, 3.68 -0.01, 3.68 -0.01 C 2.69 -0.01, 2.11 0.37, 1.69 0.9 C 1.29 1.41, 1.27 2.22, 1.27 2.75 L 1.27 2.85 L 1.27 3.41 L 1.27 3.97 L -0.01 3.97 L -0.01 5.76 L 1.27 5.76 L 1.27 12 L 3.68 12 L 3.68 5.76 L 5.59 5.76 L 5.73 3.97 L 3.68 3.97 L 3.68 3.41 L 3.68 2.75 L 3.68 2.57 C 3.68 2.08, 4.13 1.91, 4.63 1.91 C 4.63 1.91, 5.13 1.91, 5.67 2.07 Z" fill="#ffffff" />
</svg>